<mxfile host="Electron" modified="2023-05-04T01:34:44.214Z" agent="Mozilla/5.0 (Windows NT 10.0; Win64; x64) AppleWebKit/537.36 (KHTML, like Gecko) draw.io/21.2.1 Chrome/112.0.5615.87 Electron/24.1.2 Safari/537.36" etag="kLIRaJ1zVMDXZdCjFzJs" version="21.2.1" type="device">
  <diagram name="Page-1" id="ocAYI9pDW4dQGQofCPlS">
    <mxGraphModel dx="712" dy="835" grid="1" gridSize="10" guides="1" tooltips="1" connect="1" arrows="1" fold="1" page="1" pageScale="1" pageWidth="850" pageHeight="1100" math="0" shadow="0">
      <root>
        <mxCell id="0" />
        <mxCell id="1" parent="0" />
        <mxCell id="CUhzHair_5yWuqLiZI36-3" value="" style="edgeStyle=orthogonalEdgeStyle;rounded=0;orthogonalLoop=1;jettySize=auto;html=1;" parent="1" source="CUhzHair_5yWuqLiZI36-4" target="CUhzHair_5yWuqLiZI36-6" edge="1">
          <mxGeometry relative="1" as="geometry" />
        </mxCell>
        <mxCell id="CUhzHair_5yWuqLiZI36-4" value="Inicio" style="ellipse;whiteSpace=wrap;html=1;" parent="1" vertex="1">
          <mxGeometry x="100" y="10" width="80" height="40" as="geometry" />
        </mxCell>
        <mxCell id="CUhzHair_5yWuqLiZI36-5" value="" style="edgeStyle=orthogonalEdgeStyle;rounded=0;orthogonalLoop=1;jettySize=auto;html=1;" parent="1" source="CUhzHair_5yWuqLiZI36-6" target="CUhzHair_5yWuqLiZI36-8" edge="1">
          <mxGeometry relative="1" as="geometry" />
        </mxCell>
        <mxCell id="CUhzHair_5yWuqLiZI36-6" value="Val, Vec = 30, Cont,&lt;br&gt;Cont110, Cont1020, &lt;br&gt;Cont2030, Cont30,&lt;br&gt;Por110 =1, Por1020 =1,&lt;br&gt;Por2030 =1, Por30 =1" style="shape=parallelogram;perimeter=parallelogramPerimeter;whiteSpace=wrap;html=1;fixedSize=1;" parent="1" vertex="1">
          <mxGeometry x="50" y="70" width="180" height="90" as="geometry" />
        </mxCell>
        <mxCell id="CUhzHair_5yWuqLiZI36-7" value="" style="edgeStyle=orthogonalEdgeStyle;rounded=0;orthogonalLoop=1;jettySize=auto;html=1;" parent="1" source="CUhzHair_5yWuqLiZI36-8" target="CUhzHair_5yWuqLiZI36-10" edge="1">
          <mxGeometry relative="1" as="geometry" />
        </mxCell>
        <mxCell id="CUhzHair_5yWuqLiZI36-8" value="Cont=1;&lt;br&gt;Cont&amp;lt;=Vec;&lt;br&gt;Cont++" style="rhombus;whiteSpace=wrap;html=1;" parent="1" vertex="1">
          <mxGeometry x="100" y="220" width="80" height="80" as="geometry" />
        </mxCell>
        <mxCell id="CUhzHair_5yWuqLiZI36-9" value="" style="edgeStyle=orthogonalEdgeStyle;rounded=0;orthogonalLoop=1;jettySize=auto;html=1;" parent="1" source="CUhzHair_5yWuqLiZI36-10" target="CUhzHair_5yWuqLiZI36-12" edge="1">
          <mxGeometry relative="1" as="geometry" />
        </mxCell>
        <mxCell id="CUhzHair_5yWuqLiZI36-10" value="&quot;Ingrese un valor&lt;br&gt;entero&quot;" style="shape=document;whiteSpace=wrap;html=1;boundedLbl=1;" parent="1" vertex="1">
          <mxGeometry x="80" y="320" width="120" height="80" as="geometry" />
        </mxCell>
        <mxCell id="CUhzHair_5yWuqLiZI36-11" value="" style="edgeStyle=orthogonalEdgeStyle;rounded=0;orthogonalLoop=1;jettySize=auto;html=1;" parent="1" source="CUhzHair_5yWuqLiZI36-12" edge="1">
          <mxGeometry relative="1" as="geometry">
            <mxPoint x="140" y="510" as="targetPoint" />
          </mxGeometry>
        </mxCell>
        <mxCell id="CUhzHair_5yWuqLiZI36-12" value="Val" style="shape=parallelogram;perimeter=parallelogramPerimeter;whiteSpace=wrap;html=1;fixedSize=1;" parent="1" vertex="1">
          <mxGeometry x="80" y="420" width="120" height="60" as="geometry" />
        </mxCell>
        <mxCell id="CUhzHair_5yWuqLiZI36-14" value="" style="edgeStyle=orthogonalEdgeStyle;rounded=0;orthogonalLoop=1;jettySize=auto;html=1;entryX=0;entryY=0.5;entryDx=0;entryDy=0;" parent="1" edge="1">
          <mxGeometry relative="1" as="geometry">
            <mxPoint x="240" y="180" as="targetPoint" />
            <mxPoint x="140" y="180" as="sourcePoint" />
          </mxGeometry>
        </mxCell>
        <mxCell id="CUhzHair_5yWuqLiZI36-27" value="Fin" style="ellipse;whiteSpace=wrap;html=1;" parent="1" vertex="1">
          <mxGeometry x="640" y="270" width="80" height="40" as="geometry" />
        </mxCell>
        <mxCell id="zJRK8sMUYYJQOt4oljLq-11" value="" style="edgeStyle=orthogonalEdgeStyle;rounded=0;orthogonalLoop=1;jettySize=auto;html=1;" edge="1" parent="1" source="zJRK8sMUYYJQOt4oljLq-10" target="CUhzHair_5yWuqLiZI36-8">
          <mxGeometry relative="1" as="geometry" />
        </mxCell>
        <mxCell id="zJRK8sMUYYJQOt4oljLq-10" value="1" style="ellipse;whiteSpace=wrap;html=1;aspect=fixed;" vertex="1" parent="1">
          <mxGeometry x="40" y="240" width="40" height="40" as="geometry" />
        </mxCell>
        <mxCell id="zJRK8sMUYYJQOt4oljLq-12" value="1" style="ellipse;whiteSpace=wrap;html=1;aspect=fixed;" vertex="1" parent="1">
          <mxGeometry x="400" y="830" width="40" height="40" as="geometry" />
        </mxCell>
        <mxCell id="zJRK8sMUYYJQOt4oljLq-41" value="" style="edgeStyle=orthogonalEdgeStyle;rounded=0;orthogonalLoop=1;jettySize=auto;html=1;" edge="1" parent="1" source="zJRK8sMUYYJQOt4oljLq-39" target="zJRK8sMUYYJQOt4oljLq-40">
          <mxGeometry relative="1" as="geometry" />
        </mxCell>
        <mxCell id="zJRK8sMUYYJQOt4oljLq-49" value="" style="edgeStyle=orthogonalEdgeStyle;rounded=0;orthogonalLoop=1;jettySize=auto;html=1;" edge="1" parent="1" source="zJRK8sMUYYJQOt4oljLq-39" target="zJRK8sMUYYJQOt4oljLq-43">
          <mxGeometry relative="1" as="geometry" />
        </mxCell>
        <mxCell id="zJRK8sMUYYJQOt4oljLq-39" value="Val&amp;gt;=1&lt;br&gt;&amp;amp;&amp;amp;&lt;br&gt;Val&amp;lt;=10" style="rhombus;whiteSpace=wrap;html=1;" vertex="1" parent="1">
          <mxGeometry x="100" y="510" width="80" height="80" as="geometry" />
        </mxCell>
        <mxCell id="zJRK8sMUYYJQOt4oljLq-46" value="" style="edgeStyle=orthogonalEdgeStyle;rounded=0;orthogonalLoop=1;jettySize=auto;html=1;" edge="1" parent="1" source="zJRK8sMUYYJQOt4oljLq-40" target="zJRK8sMUYYJQOt4oljLq-45">
          <mxGeometry relative="1" as="geometry" />
        </mxCell>
        <mxCell id="zJRK8sMUYYJQOt4oljLq-40" value="&quot;El numero esta entre el 1 y el 10&quot;" style="shape=document;whiteSpace=wrap;html=1;boundedLbl=1;" vertex="1" parent="1">
          <mxGeometry x="80" y="610" width="120" height="80" as="geometry" />
        </mxCell>
        <mxCell id="zJRK8sMUYYJQOt4oljLq-42" value="" style="edgeStyle=orthogonalEdgeStyle;rounded=0;orthogonalLoop=1;jettySize=auto;html=1;" edge="1" parent="1" source="zJRK8sMUYYJQOt4oljLq-43" target="zJRK8sMUYYJQOt4oljLq-44">
          <mxGeometry relative="1" as="geometry" />
        </mxCell>
        <mxCell id="zJRK8sMUYYJQOt4oljLq-55" value="" style="edgeStyle=orthogonalEdgeStyle;rounded=0;orthogonalLoop=1;jettySize=auto;html=1;" edge="1" parent="1" source="zJRK8sMUYYJQOt4oljLq-43" target="zJRK8sMUYYJQOt4oljLq-51">
          <mxGeometry relative="1" as="geometry" />
        </mxCell>
        <mxCell id="zJRK8sMUYYJQOt4oljLq-43" value="Val&amp;gt;=11&lt;br&gt;&amp;amp;&amp;amp;&lt;br&gt;Val&amp;lt;=20" style="rhombus;whiteSpace=wrap;html=1;" vertex="1" parent="1">
          <mxGeometry x="240" y="510" width="80" height="80" as="geometry" />
        </mxCell>
        <mxCell id="zJRK8sMUYYJQOt4oljLq-48" value="" style="edgeStyle=orthogonalEdgeStyle;rounded=0;orthogonalLoop=1;jettySize=auto;html=1;" edge="1" parent="1" source="zJRK8sMUYYJQOt4oljLq-44" target="zJRK8sMUYYJQOt4oljLq-47">
          <mxGeometry relative="1" as="geometry" />
        </mxCell>
        <mxCell id="zJRK8sMUYYJQOt4oljLq-44" value="&quot;El numero esta entre el 10 y el 20&quot;" style="shape=document;whiteSpace=wrap;html=1;boundedLbl=1;" vertex="1" parent="1">
          <mxGeometry x="220" y="610" width="120" height="80" as="geometry" />
        </mxCell>
        <mxCell id="zJRK8sMUYYJQOt4oljLq-70" value="" style="edgeStyle=orthogonalEdgeStyle;rounded=0;orthogonalLoop=1;jettySize=auto;html=1;entryX=0;entryY=0.5;entryDx=0;entryDy=0;" edge="1" parent="1" source="zJRK8sMUYYJQOt4oljLq-45" target="zJRK8sMUYYJQOt4oljLq-12">
          <mxGeometry relative="1" as="geometry">
            <mxPoint x="140" y="860" as="targetPoint" />
            <Array as="points">
              <mxPoint x="140" y="850" />
            </Array>
          </mxGeometry>
        </mxCell>
        <mxCell id="zJRK8sMUYYJQOt4oljLq-45" value="Cont110 += Val" style="rounded=0;whiteSpace=wrap;html=1;" vertex="1" parent="1">
          <mxGeometry x="80" y="720" width="120" height="60" as="geometry" />
        </mxCell>
        <mxCell id="zJRK8sMUYYJQOt4oljLq-66" value="" style="edgeStyle=orthogonalEdgeStyle;rounded=0;orthogonalLoop=1;jettySize=auto;html=1;entryX=0.5;entryY=0;entryDx=0;entryDy=0;" edge="1" parent="1" source="zJRK8sMUYYJQOt4oljLq-47" target="zJRK8sMUYYJQOt4oljLq-12">
          <mxGeometry relative="1" as="geometry">
            <mxPoint x="280" y="860" as="targetPoint" />
            <Array as="points">
              <mxPoint x="280" y="800" />
              <mxPoint x="420" y="800" />
            </Array>
          </mxGeometry>
        </mxCell>
        <mxCell id="zJRK8sMUYYJQOt4oljLq-47" value="Cont1020 += Val" style="rounded=0;whiteSpace=wrap;html=1;" vertex="1" parent="1">
          <mxGeometry x="220" y="720" width="120" height="60" as="geometry" />
        </mxCell>
        <mxCell id="zJRK8sMUYYJQOt4oljLq-50" value="" style="edgeStyle=orthogonalEdgeStyle;rounded=0;orthogonalLoop=1;jettySize=auto;html=1;" edge="1" parent="1" source="zJRK8sMUYYJQOt4oljLq-51" target="zJRK8sMUYYJQOt4oljLq-53">
          <mxGeometry relative="1" as="geometry" />
        </mxCell>
        <mxCell id="zJRK8sMUYYJQOt4oljLq-61" value="" style="edgeStyle=orthogonalEdgeStyle;rounded=0;orthogonalLoop=1;jettySize=auto;html=1;" edge="1" parent="1" source="zJRK8sMUYYJQOt4oljLq-51" target="zJRK8sMUYYJQOt4oljLq-57">
          <mxGeometry relative="1" as="geometry" />
        </mxCell>
        <mxCell id="zJRK8sMUYYJQOt4oljLq-51" value="Val&amp;gt;=21&lt;br&gt;&amp;amp;&amp;amp;&lt;br&gt;Val&amp;lt;=30" style="rhombus;whiteSpace=wrap;html=1;" vertex="1" parent="1">
          <mxGeometry x="380" y="510" width="80" height="80" as="geometry" />
        </mxCell>
        <mxCell id="zJRK8sMUYYJQOt4oljLq-52" value="" style="edgeStyle=orthogonalEdgeStyle;rounded=0;orthogonalLoop=1;jettySize=auto;html=1;" edge="1" parent="1" source="zJRK8sMUYYJQOt4oljLq-53" target="zJRK8sMUYYJQOt4oljLq-54">
          <mxGeometry relative="1" as="geometry" />
        </mxCell>
        <mxCell id="zJRK8sMUYYJQOt4oljLq-53" value="&quot;El numero esta entre el 20 y el 30&quot;" style="shape=document;whiteSpace=wrap;html=1;boundedLbl=1;" vertex="1" parent="1">
          <mxGeometry x="360" y="610" width="120" height="80" as="geometry" />
        </mxCell>
        <mxCell id="zJRK8sMUYYJQOt4oljLq-64" value="" style="edgeStyle=orthogonalEdgeStyle;rounded=0;orthogonalLoop=1;jettySize=auto;html=1;" edge="1" parent="1" source="zJRK8sMUYYJQOt4oljLq-54" target="zJRK8sMUYYJQOt4oljLq-12">
          <mxGeometry relative="1" as="geometry" />
        </mxCell>
        <mxCell id="zJRK8sMUYYJQOt4oljLq-54" value="Cont2030 += Val" style="rounded=0;whiteSpace=wrap;html=1;" vertex="1" parent="1">
          <mxGeometry x="360" y="720" width="120" height="60" as="geometry" />
        </mxCell>
        <mxCell id="zJRK8sMUYYJQOt4oljLq-56" value="" style="edgeStyle=orthogonalEdgeStyle;rounded=0;orthogonalLoop=1;jettySize=auto;html=1;" edge="1" parent="1" source="zJRK8sMUYYJQOt4oljLq-57" target="zJRK8sMUYYJQOt4oljLq-59">
          <mxGeometry relative="1" as="geometry" />
        </mxCell>
        <mxCell id="zJRK8sMUYYJQOt4oljLq-63" value="" style="edgeStyle=orthogonalEdgeStyle;rounded=0;orthogonalLoop=1;jettySize=auto;html=1;" edge="1" parent="1" source="zJRK8sMUYYJQOt4oljLq-57" target="zJRK8sMUYYJQOt4oljLq-62">
          <mxGeometry relative="1" as="geometry" />
        </mxCell>
        <mxCell id="zJRK8sMUYYJQOt4oljLq-57" value="Val &amp;gt;= 31" style="rhombus;whiteSpace=wrap;html=1;" vertex="1" parent="1">
          <mxGeometry x="520" y="510" width="80" height="80" as="geometry" />
        </mxCell>
        <mxCell id="zJRK8sMUYYJQOt4oljLq-58" value="" style="edgeStyle=orthogonalEdgeStyle;rounded=0;orthogonalLoop=1;jettySize=auto;html=1;" edge="1" parent="1" source="zJRK8sMUYYJQOt4oljLq-59" target="zJRK8sMUYYJQOt4oljLq-60">
          <mxGeometry relative="1" as="geometry" />
        </mxCell>
        <mxCell id="zJRK8sMUYYJQOt4oljLq-59" value="&quot;El valor es mayor a 30&quot;" style="shape=document;whiteSpace=wrap;html=1;boundedLbl=1;" vertex="1" parent="1">
          <mxGeometry x="500" y="610" width="120" height="80" as="geometry" />
        </mxCell>
        <mxCell id="zJRK8sMUYYJQOt4oljLq-68" value="" style="edgeStyle=orthogonalEdgeStyle;rounded=0;orthogonalLoop=1;jettySize=auto;html=1;entryX=0.5;entryY=0;entryDx=0;entryDy=0;" edge="1" parent="1" source="zJRK8sMUYYJQOt4oljLq-60" target="zJRK8sMUYYJQOt4oljLq-12">
          <mxGeometry relative="1" as="geometry">
            <mxPoint x="560" y="850" as="targetPoint" />
            <Array as="points">
              <mxPoint x="560" y="800" />
              <mxPoint x="420" y="800" />
            </Array>
          </mxGeometry>
        </mxCell>
        <mxCell id="zJRK8sMUYYJQOt4oljLq-60" value="Cont30 += Val" style="rounded=0;whiteSpace=wrap;html=1;" vertex="1" parent="1">
          <mxGeometry x="500" y="720" width="120" height="60" as="geometry" />
        </mxCell>
        <mxCell id="zJRK8sMUYYJQOt4oljLq-72" value="" style="edgeStyle=orthogonalEdgeStyle;rounded=0;orthogonalLoop=1;jettySize=auto;html=1;entryX=1;entryY=0.35;entryDx=0;entryDy=0;entryPerimeter=0;" edge="1" parent="1" source="zJRK8sMUYYJQOt4oljLq-62" target="zJRK8sMUYYJQOt4oljLq-12">
          <mxGeometry relative="1" as="geometry">
            <mxPoint x="740" y="690" as="targetPoint" />
            <Array as="points">
              <mxPoint x="740" y="844" />
            </Array>
          </mxGeometry>
        </mxCell>
        <mxCell id="zJRK8sMUYYJQOt4oljLq-62" value="&quot;El valor es menor a 0 y no sera tomado en cuenta en el resultado final&quot;" style="shape=document;whiteSpace=wrap;html=1;boundedLbl=1;" vertex="1" parent="1">
          <mxGeometry x="640" y="510" width="200" height="80" as="geometry" />
        </mxCell>
        <mxCell id="zJRK8sMUYYJQOt4oljLq-75" value="" style="edgeStyle=orthogonalEdgeStyle;rounded=0;orthogonalLoop=1;jettySize=auto;html=1;" edge="1" parent="1" source="zJRK8sMUYYJQOt4oljLq-73" target="zJRK8sMUYYJQOt4oljLq-74">
          <mxGeometry relative="1" as="geometry" />
        </mxCell>
        <mxCell id="zJRK8sMUYYJQOt4oljLq-73" value="&lt;div&gt;Por110 = (Cont110 * 100) / Vec;&lt;/div&gt;&lt;div&gt;	Por1020 = (Cont1020 * 100) / Vec;&lt;/div&gt;&lt;div&gt;&lt;span style=&quot;&quot;&gt;	&lt;/span&gt;Por2030 = (Cont2030 * 100) / Vec;&lt;/div&gt;&lt;div&gt;&lt;span style=&quot;&quot;&gt;	&lt;/span&gt;Por30 = (Cont30 * 100) / Vec;&lt;/div&gt;" style="rounded=0;whiteSpace=wrap;html=1;" vertex="1" parent="1">
          <mxGeometry x="240" y="150" width="220" height="60" as="geometry" />
        </mxCell>
        <mxCell id="zJRK8sMUYYJQOt4oljLq-77" value="" style="edgeStyle=orthogonalEdgeStyle;rounded=0;orthogonalLoop=1;jettySize=auto;html=1;" edge="1" parent="1" source="zJRK8sMUYYJQOt4oljLq-74" target="CUhzHair_5yWuqLiZI36-27">
          <mxGeometry relative="1" as="geometry" />
        </mxCell>
        <mxCell id="zJRK8sMUYYJQOt4oljLq-74" value="&quot;El porcentaje de valores entre 1 y 10 es de &quot; Por110&lt;br&gt;&quot;El porcentaje de valores entre 10 y 20 es de &quot; Por1020&lt;br&gt;&quot;El porcentaje de valores entre 20 y 30 es de &quot; Por2030&lt;br&gt;&quot;El porcentaje de valores mayores a 30 es de &quot; Por30" style="shape=document;whiteSpace=wrap;html=1;boundedLbl=1;" vertex="1" parent="1">
          <mxGeometry x="520" y="130" width="320" height="100" as="geometry" />
        </mxCell>
      </root>
    </mxGraphModel>
  </diagram>
</mxfile>
